<mxfile host="app.diagrams.net" modified="2023-01-07T17:50:05.238Z" agent="5.0 (Macintosh; Intel Mac OS X 10_15_7) AppleWebKit/605.1.15 (KHTML, like Gecko) Version/16.1 Safari/605.1.15" version="20.8.3" etag="Q0gPbxSs-V5W03O3V8aE" type="github">
  <diagram id="4n0W-nkRftsQ5BCJh-tg" name="Page-1">
    <mxGraphModel dx="1522" dy="1106" grid="1" gridSize="10" guides="1" tooltips="1" connect="1" arrows="1" fold="1" page="1" pageScale="1" pageWidth="827" pageHeight="1169" math="0" shadow="0">
      <root>
        <mxCell id="0" />
        <mxCell id="1" parent="0" />
        <mxCell id="Nd8R33uifUJ0Ixu80cJD-1" value="I1" style="outlineConnect=0;dashed=0;verticalLabelPosition=bottom;verticalAlign=top;align=center;html=1;shape=mxgraph.aws3.ec2_compute_container_3;fillColor=#F58534;gradientColor=none;" vertex="1" parent="1">
          <mxGeometry x="140" y="210" width="60" height="34.5" as="geometry" />
        </mxCell>
        <mxCell id="Nd8R33uifUJ0Ixu80cJD-2" value="I2" style="outlineConnect=0;dashed=0;verticalLabelPosition=bottom;verticalAlign=top;align=center;html=1;shape=mxgraph.aws3.ec2_compute_container_3;fillColor=#F58534;gradientColor=none;" vertex="1" parent="1">
          <mxGeometry x="370" y="210" width="60" height="34.5" as="geometry" />
        </mxCell>
        <mxCell id="Nd8R33uifUJ0Ixu80cJD-4" value="" style="shape=flexArrow;endArrow=classic;startArrow=classic;html=1;rounded=0;fillColor=#dae8fc;strokeColor=#6c8ebf;verticalAlign=bottom;horizontal=1;labelPosition=center;verticalLabelPosition=top;align=center;" edge="1" parent="1">
          <mxGeometry width="100" height="100" relative="1" as="geometry">
            <mxPoint x="210" y="227" as="sourcePoint" />
            <mxPoint x="360" y="227" as="targetPoint" />
          </mxGeometry>
        </mxCell>
        <mxCell id="Nd8R33uifUJ0Ixu80cJD-5" value="ping, ssh, scp, rsync, scan, ..." style="edgeLabel;html=1;align=center;verticalAlign=middle;resizable=0;points=[];" vertex="1" connectable="0" parent="Nd8R33uifUJ0Ixu80cJD-4">
          <mxGeometry y="3" relative="1" as="geometry">
            <mxPoint y="-24" as="offset" />
          </mxGeometry>
        </mxCell>
      </root>
    </mxGraphModel>
  </diagram>
</mxfile>
